<svg width="180" height="180" viewBox="0 0 180 180" fill="none" xmlns="http://www.w3.org/2000/svg">
<circle cx="90" cy="90" r="90" fill="#DDDEE0"/>
<path d="M45.3016 101.602C51.1025 93.5156 58.9247 91.6699 58.9247 91.6699C58.9247 91.6699 71.7567 100.898 90.3896 100.898C109.022 100.898 120.888 91.7578 120.888 91.7578C124.228 93.1934 130.046 94.4824 134.862 101.953C139.679 109.424 142.421 124.365 143.651 127.793C144.882 131.221 147.691 135.439 145.409 138.955C143.127 142.471 129.036 140.324 127.392 143.613C126.425 145.547 128.007 148.359 123.173 150.732C118.339 153.105 113.505 149.238 106.913 149.854C100.321 150.469 99.7058 156.027 90.1257 155.83C80.5456 155.633 78.8757 150.732 72.8112 150.029C66.7468 149.326 60.5941 152.93 56.6394 150.732C52.6846 148.535 52.8604 144.488 52.2451 143.789C48.378 139.395 37.6553 143.086 34.4912 138.955C31.3271 134.824 37.3037 127.002 38.0946 121.025C38.8854 115.049 42.6037 105.362 45.3016 101.602Z" fill="#F8F9F9"/>
<path d="M129.237 63.2812C129.237 84.9304 123.788 102.48 89.8623 102.48C55.9366 102.48 50.4873 84.9304 50.4873 63.2812C50.4873 41.6321 63.4951 24.082 89.8623 24.082C116.23 24.082 129.237 41.6321 129.237 63.2812Z" fill="#F8F9F9"/>
<path d="M121.325 66.5332C121.325 80.8527 119.568 94.2188 89.8606 94.2188C60.1536 94.2188 58.3958 80.8527 58.3958 66.5332C58.3958 51.416 58.394 42.3633 89.8606 42.3633C121.327 42.3633 121.325 51.3281 121.325 66.5332Z" fill="#46494E"/>
<path d="M79.4912 66.6211C79.4912 71.4752 78.3487 75.4102 75.0088 75.4102C71.669 75.4102 70.5264 71.4752 70.5264 66.6211C70.5264 61.767 71.7569 57.832 75.0088 57.832C78.2608 57.832 79.4912 61.767 79.4912 66.6211Z" fill="#F8F9F9"/>
<path d="M109.198 66.6211C109.198 71.4752 108.056 75.4102 104.716 75.4102C101.376 75.4102 100.233 71.4752 100.233 66.6211C100.233 61.767 101.464 57.832 104.716 57.832C107.968 57.832 109.198 61.767 109.198 66.6211Z" fill="#F8F9F9"/>
<path d="M48.2647 58.4363C48.3637 56.9252 47.0008 55.5035 45.8195 56.451C45.1478 56.9898 44.5373 57.7797 44.0232 58.7754C43.509 59.771 43.1012 60.9531 42.8229 62.254C42.5446 63.555 42.4014 64.9493 42.4014 66.3574C42.4014 67.7655 42.5446 69.1599 42.8229 70.4608C43.1012 71.7617 43.509 72.9438 44.0232 73.9395C44.5373 74.9352 45.1478 75.725 45.8195 76.2639C47.0008 77.2114 48.3637 75.7897 48.2647 74.2786C48.1158 72.0045 47.9385 68.7881 47.9385 66.3574C47.9385 63.9267 48.1158 60.7103 48.2647 58.4363Z" fill="#F8F9F9"/>
<path d="M131.548 58.4363C131.449 56.9252 132.812 55.5035 133.993 56.451C134.665 56.9898 135.275 57.7797 135.789 58.7754C136.304 59.771 136.711 60.9531 136.99 62.254C137.268 63.555 137.411 64.9493 137.411 66.3574C137.411 67.7655 137.268 69.1599 136.99 70.4608C136.711 71.7617 136.304 72.9438 135.789 73.9395C135.275 74.9352 134.665 75.725 133.993 76.2639C132.812 77.2114 131.449 75.7897 131.548 74.2786C131.697 72.0045 131.874 68.7881 131.874 66.3574C131.874 63.9267 131.697 60.7103 131.548 58.4363Z" fill="#F8F9F9"/>
</svg>
